<svg width="54" height="53" viewBox="0 0 54 53" fill="none" xmlns="http://www.w3.org/2000/svg">
<rect x="0.5" width="53" height="53" rx="15" fill="#3C50E0"/>
<path d="M28.978 30.0601H12.366C11.0554 30.0601 9.99289 31.1225 9.99289 32.4332C9.99289 33.7438 11.0554 34.8063 12.366 34.8063H31.3511L28.978 30.0601Z" fill="#FAF8FF"/>
<path d="M13.5526 36.9183L12.7615 38.2884C12.1062 39.4235 12.4951 40.8749 13.6302 41.5302C14.7652 42.1855 16.2166 41.7966 16.8719 40.6616L19.0331 36.9183L13.5526 36.9183Z" fill="#FAF8FF"/>
<path d="M21.5622 32.5151L32.2974 13.9212C32.9527 12.7862 32.5638 11.3348 31.4288 10.6795C30.2937 10.0241 28.8423 10.413 28.187 11.5481L15.9616 32.7231L21.5622 32.5151Z" fill="#FAF8FF"/>
<path d="M31.414 19.6946L42.1492 38.2884C42.8045 39.4235 42.4156 40.8749 41.2805 41.5302C40.1455 42.1855 38.6941 41.7966 38.0388 40.6616L30.3062 27.2683C29.7338 26.2769 29.6136 25.0877 29.9761 24.0017L31.414 19.6946Z" fill="#FAF8FF"/>
<path d="M35.3063 30.0601H42.4257C43.7364 30.0601 44.7989 31.1225 44.7989 32.4332C44.7989 33.7438 43.7364 34.8063 42.4257 34.8063H35.3063V30.0601Z" fill="#FAF8FF"/>
<path d="M29.9243 17.7139L26.3646 11.5483C25.7093 10.4132 24.2579 10.0243 23.1228 10.6797C21.9878 11.335 21.5989 12.7864 22.2542 13.9214L25.8139 20.087L29.9243 17.7139Z" fill="#FAF8FF"/>
</svg>
