<svg width="8" height="12" viewBox="0 0 8 12" fill="none" xmlns="http://www.w3.org/2000/svg">
<path fill-rule="evenodd" clip-rule="evenodd" d="M6.97746 5.90738C7.22729 5.28966 6.77266 4.61538 6.10634 4.61538C5.58737 4.61538 5.16667 4.19468 5.16667 3.67571V2.76923C5.16667 2.25969 5.5848 2.30769 6.1 2.30769C6.61547 2.30769 7.03333 1.88982 7.03333 1.37436V1.15385C7.03333 0.516594 6.51674 0 5.87949 0H5.16667C4.42406 0 3.71187 0.291757 3.18677 0.811089C2.66167 1.33042 2.36667 2.03479 2.36667 2.76923V3.68205C2.36667 4.19752 1.9488 4.61538 1.43333 4.61538C0.917868 4.61538 0.5 5.03325 0.5 5.54872V5.98974C0.5 6.50521 0.917868 6.92308 1.43333 6.92308C1.9488 6.92308 2.36667 7.34094 2.36667 7.85641V10.6C2.36667 11.3732 2.99347 12 3.76667 12C4.53987 12 5.16667 11.3732 5.16667 10.6V7.75927C5.16667 7.29746 5.54104 6.92308 6.00286 6.92308C6.34362 6.92308 6.6503 6.7163 6.77806 6.4004L6.97746 5.90738Z" fill="#3C50E0"/>
</svg>
