<svg width="338" height="699" viewBox="0 0 338 699" fill="none" xmlns="http://www.w3.org/2000/svg">
<path fill-rule="evenodd" clip-rule="evenodd" d="M50.6737 0H287.326C314.113 0 335.828 21.7121 335.828 48.4952V153.153C336.802 153.498 337.5 154.427 337.5 155.519V224.917C337.5 226.01 336.802 226.939 335.828 227.283V650.505C335.828 677.288 314.113 699 287.326 699H50.6737C23.8872 699 2.17246 677.288 2.17246 650.505V238.153C1.19809 237.808 0.5 236.879 0.5 235.787V195.653C0.5 194.561 1.19809 193.632 2.17246 193.287V177.952C1.19809 177.607 0.5 176.678 0.5 175.586V135.452C0.5 134.36 1.19809 133.431 2.17246 133.087V112.734C1.19809 112.39 0.5 111.461 0.5 110.368V89.4653C0.5 88.3731 1.19809 87.444 2.17246 87.0997V48.4952C2.17246 21.7121 23.8872 0 50.6737 0ZM50.6737 10.0335C29.4292 10.0335 12.2072 27.2535 12.2072 48.4952V650.505C12.2072 671.747 29.4292 688.967 50.6737 688.967H287.326C308.571 688.967 325.793 671.747 325.793 650.505V48.4952C325.793 27.2535 308.571 10.0335 287.326 10.0335H262.169C259.288 11.0474 257.222 13.7932 257.222 17.0211C257.222 27.2463 248.932 35.5353 238.706 35.5353H98.4581C88.2318 35.5353 79.9417 27.2463 79.9417 17.0211C79.9417 13.7932 77.8761 11.0474 74.9944 10.0335H50.6737Z" fill="#151515"/>
</svg>
