<svg width="328" height="677" viewBox="0 0 328 677" fill="none" xmlns="http://www.w3.org/2000/svg">
<path fill-rule="evenodd" clip-rule="evenodd" d="M49.1849 0H278.815C304.807 0 325.877 21.0287 325.877 46.9689V148.333C326.823 148.667 327.5 149.567 327.5 150.624V217.839C327.5 218.896 326.823 219.796 325.877 220.13V630.031C325.877 655.971 304.807 677 278.815 677H49.1849C23.1933 677 2.12283 655.971 2.12283 630.031V230.657C1.17737 230.324 0.5 229.424 0.5 228.366V189.495C0.5 188.437 1.17737 187.538 2.12283 187.204V172.351C1.17737 172.017 0.5 171.118 0.5 170.06V131.189C0.5 130.131 1.17737 129.231 2.12283 128.898V109.186C1.17737 108.852 0.5 107.953 0.5 106.895V86.6495C0.5 85.5917 1.17737 84.6918 2.12283 84.3583V46.9689C2.12283 21.0287 23.1933 0 49.1849 0ZM49.1849 9.7177C28.5708 9.7177 11.8598 26.3957 11.8598 46.9689V630.031C11.8598 650.604 28.5708 667.282 49.1849 667.282H278.815C299.429 667.282 316.14 650.604 316.14 630.031V46.9689C316.14 26.3957 299.429 9.7177 278.815 9.7177H254.405C251.609 10.6997 249.604 13.3591 249.604 16.4854C249.604 26.3888 241.56 34.4169 231.637 34.4169H95.5514C85.6285 34.4169 77.5844 26.3888 77.5844 16.4854C77.5844 13.3591 75.5801 10.6997 72.7839 9.7177H49.1849Z" fill="#151515"/>
</svg>
