<svg width="12" height="10" viewBox="0 0 12 10" fill="none" xmlns="http://www.w3.org/2000/svg">
<path d="M3.41027 4.45413C3.41027 3.82504 2.9003 3.31507 2.27121 3.31507C1.64212 3.31507 1.13215 3.82504 1.13215 4.45413V8.84749C1.13215 9.47658 1.64212 9.98655 2.27121 9.98655C2.9003 9.98655 3.41027 9.47658 3.41027 8.84749V4.45413Z" fill="#3C50E0"/>
<path d="M3.02728 0.201635C2.81016 0.0701661 2.555 3.99915e-06 2.29399 1.70346e-10C2.11983 -2.66581e-06 1.94739 0.0312427 1.78659 0.0919395C1.62578 0.152636 1.47978 0.241586 1.35699 0.353675C1.23419 0.465763 1.13702 0.598778 1.07107 0.74507C1.00512 0.891361 0.971677 1.04804 0.972678 1.2061C0.974178 1.44299 1.05295 1.67416 1.19904 1.87046C1.34514 2.06677 1.55202 2.2194 1.79359 2.30911C2.03515 2.39882 2.30058 2.42158 2.55639 2.37454C2.8122 2.32749 3.04692 2.21274 3.23095 2.04475C3.41498 1.87677 3.54007 1.66308 3.59044 1.43064C3.64081 1.19821 3.61421 0.957443 3.51398 0.738716C3.41375 0.51999 3.2444 0.333104 3.02728 0.201635Z" fill="#3C50E0"/>
<path d="M7.06709 3.52184C7.06709 3.40746 6.97437 3.31473 6.85998 3.31473H5.96917C5.3633 3.31473 4.87194 3.80553 4.87126 4.4114L4.8662 8.86029C4.86549 9.48953 5.37538 10 6.00462 10C6.63335 10 7.14303 9.49031 7.14303 8.86159V6.69872C7.14303 5.83032 7.32528 4.98949 8.5099 4.98949C9.69453 4.98949 9.69453 5.98884 9.69453 6.76074V8.84715C9.69453 9.47624 10.2045 9.98622 10.8336 9.98622C11.4627 9.98622 11.9727 9.47624 11.9727 8.84715V6.32655C11.9727 4.52773 11.5094 3.14932 9.23131 3.14932C8.79712 3.1339 8.36646 3.22577 7.98529 3.41512C7.82277 3.49586 7.67185 3.59303 7.53516 3.70432C7.37502 3.83469 7.06709 3.72834 7.06709 3.52184Z" fill="#3C50E0"/>
</svg>
