<svg width="19" height="20" viewBox="0 0 19 20" fill="none" xmlns="http://www.w3.org/2000/svg">
<path d="M9.49946 6.1897C7.39817 6.1897 5.68873 7.89914 5.68873 10.0003C5.68873 12.1016 7.39817 13.811 9.49946 13.811C11.6006 13.811 13.31 12.1016 13.31 10.0003C13.31 7.89914 11.6006 6.1897 9.49946 6.1897ZM11.7619 9.28265L9.03193 12.0126C8.91734 12.1272 8.76704 12.1846 8.61689 12.1846C8.46675 12.1846 8.3166 12.1274 8.20201 12.0126L7.15876 10.9694C6.92958 10.7403 6.92958 10.3688 7.15876 10.1396C7.3878 9.9104 7.75935 9.9104 7.98854 10.1396L8.61689 10.7679L10.9321 8.45288C11.1611 8.22369 11.5327 8.22369 11.7619 8.45288C11.9911 8.68192 11.9911 9.05347 11.7619 9.28265Z" fill="white"/>
<path d="M17.9955 5.42651L17.9948 5.41094C17.9862 5.21883 17.9804 5.01559 17.9768 4.78945C17.9605 3.6867 17.0839 2.77454 15.981 2.71289C13.6815 2.58456 11.9026 1.83475 10.3827 0.353278L10.3697 0.340919C9.87399 -0.11364 9.12616 -0.11364 8.63025 0.340919L8.61728 0.353278C7.09736 1.83475 5.31849 2.58456 3.019 2.71304C1.91625 2.77454 1.03948 3.6867 1.02316 4.78961C1.0198 5.01421 1.01385 5.21746 1.00515 5.41094L1.00423 5.44711C0.959527 7.79192 0.903985 10.7102 1.88024 13.3589C2.41704 14.8155 3.23003 16.0817 4.29646 17.1225C5.51106 18.3078 7.10193 19.2488 9.02484 19.9193C9.0874 19.9411 9.1524 19.9588 9.21863 19.9721C9.31201 19.9907 9.406 20 9.5 20C9.59399 20 9.68814 19.9907 9.78137 19.9721C9.84759 19.9588 9.91305 19.9409 9.97592 19.919C11.8965 19.2473 13.4857 18.3058 14.6993 17.1207C15.7652 16.0796 16.5782 14.8131 17.1155 13.3562C18.0954 10.6995 18.04 7.77574 17.9955 5.42651ZM9.49969 14.9846C6.75129 14.9846 4.51542 12.7487 4.51542 10.0003C4.51542 7.25191 6.75129 5.01605 9.49969 5.01605C12.2479 5.01605 14.484 7.25191 14.484 10.0003C14.484 12.7487 12.2479 14.9846 9.49969 14.9846Z" fill="white"/>
</svg>
