<svg width="19" height="18" viewBox="0 0 19 18" fill="none" xmlns="http://www.w3.org/2000/svg">
<path d="M16.7773 12.6094C16.0114 12.6094 15.3609 13.112 15.1376 13.8047H13.0132V11.2171H14.6994C16.795 11.2171 18.5 9.51221 18.5 7.41655C18.5 5.41219 16.9404 3.7653 14.971 3.62555C14.6777 2.66252 14.0992 1.79599 13.3133 1.15319C12.4041 0.409569 11.2555 0 10.079 0C9.02228 0 8.00802 0.319816 7.14585 0.924889C6.41176 1.44007 5.8327 2.12828 5.45449 2.9309C4.17519 2.95097 3.12719 3.94101 3.01507 5.19629C1.58858 5.44256 0.5 6.68888 0.5 8.18464C0.5 9.85677 1.86037 11.2171 3.5325 11.2171H5.98679V13.8047H3.86241C3.6391 13.1121 2.9886 12.6094 2.22265 12.6094C1.27277 12.6094 0.5 13.3822 0.5 14.332C0.5 15.2819 1.27277 16.0547 2.22265 16.0547C2.9886 16.0547 3.63913 15.552 3.86241 14.8594H7.04144V11.2171H8.97264V14.6376C8.27999 14.8609 7.77733 15.5114 7.77733 16.2773C7.77733 17.2272 8.5501 18 9.49998 18C10.4499 18 11.2226 17.2272 11.2226 16.2773C11.2226 15.5114 10.72 14.8608 10.0273 14.6376V11.2171H11.9586V14.8594H15.1376C15.3609 15.552 16.0114 16.0547 16.7773 16.0547C17.7272 16.0547 18.5 15.2819 18.5 14.332C18.5 13.3822 17.7272 12.6094 16.7773 12.6094Z" fill="#FF6C9E"/>
</svg>
