<svg width="11" height="9" viewBox="0 0 11 9" fill="none" xmlns="http://www.w3.org/2000/svg">
<path d="M10.7031 1.00421C10.6551 1.0262 10.6056 1.04803 10.5549 1.06952C10.2813 1.18536 10.1365 0.814726 10.3337 0.592561C10.5026 0.402359 10.2815 0.221563 10.0453 0.315948C9.79365 0.416529 9.5254 0.506836 9.28287 0.573474C9.08695 0.627305 8.88508 0.552386 8.7238 0.428808C8.33876 0.133773 7.85017 0 7.31925 0C6.07258 0 5.20312 1.09184 5.20312 2.36842C5.20312 2.89164 4.7733 3.32308 4.26585 3.19563C3.1668 2.91959 2.12518 2.20025 1.28449 1.37683C0.86805 0.968945 0.162748 1.05461 0.164208 1.63753C0.164208 2.16743 0.453877 2.70216 0.817969 3.13211C1.00244 3.34995 0.86432 3.6339 0.600862 3.52401C0.438644 3.45635 0.291423 3.3865 0.184953 3.32871C0.174317 3.32294 0.161458 3.33069 0.161458 3.34279C0.161458 4.09255 0.501886 4.68133 1.03596 5.05262C1.24665 5.19909 1.45651 5.62085 1.20197 5.65324C1.03783 5.67413 0.705567 5.84582 0.795943 5.98443C0.922711 6.17884 1.10446 6.34854 1.31945 6.49308C1.92857 6.9026 2.10643 7.78368 1.38648 7.92649C0.965451 8.01 0.54268 8.05263 0.161458 8.05263C0.0479541 8.05263 -0.00137734 8.22052 0.0993496 8.27284C1.05171 8.76751 2.25658 9 3.36979 9C7.52092 9 9.78646 5.72305 9.78646 2.66684C9.78646 2.33285 9.95345 2.02331 10.1728 1.77145C10.3671 1.54838 10.5101 1.30248 10.7031 1.00421Z" fill="#3C50E0"/>
</svg>
